<?xml version="1.0" encoding="utf-8"?>
<!-- Generator: Adobe Illustrator 19.0.0, SVG Export Plug-In . SVG Version: 6.00 Build 0)  -->
<svg version="1.1" id="Layer_1" xmlns="http://www.w3.org/2000/svg" xmlns:xlink="http://www.w3.org/1999/xlink" x="0px" y="0px"
	 viewBox="0 0 54.3 32.2" style="enable-background:new 0 0 54.3 32.2;" xml:space="preserve">
<style type="text/css">
	.st0{fill-rule:evenodd;clip-rule:evenodd;fill:#FFFFFF;}
</style>
<path id="XMLID_2_" class="st0" d="M44.4,21.1l-14.9-15c-1.3-1.3-3.4-1.3-4.7,0l-14.9,15c-1.5,1.3-1.7,3.2-0.4,4.5l0.6,0.5
	c1.2,1.1,2.6,1.3,3.7,0.2c3.6-3.7,7.4-7.3,11.1-11.1c1.2-1.3,3.4-1.3,4.6,0c3.7,3.7,7.4,7.4,11.1,11.1c1.1,1.2,2.5,0.9,3.6-0.2
	l0.6-0.5C46.1,24.3,45.9,22.5,44.4,21.1L44.4,21.1z"/>
</svg>
